<?xml version="1.0" encoding="UTF-8" standalone="no"?>
<!DOCTYPE svg PUBLIC "-//W3C//DTD SVG 1.1//EN" "http://www.w3.org/Graphics/SVG/1.1/DTD/svg11.dtd">
<svg width="800" height="600" xmlns="http://www.w3.org/2000/svg">
    <!-- Title -->
    <text x="400" y="30" font-family="Arial" font-size="20" text-anchor="middle" font-weight="bold">nf-core Validator Architecture</text>
    
    <!-- Documentation Website -->
    <rect x="300" y="50" width="200" height="60" rx="10" ry="10" fill="#f0f8ff" stroke="#000" stroke-width="2"/>
    <text x="400" y="85" font-family="Arial" font-size="14" text-anchor="middle">nf-core Documentation Website</text>
    
    <!-- Harvester -->
    <rect x="300" y="160" width="200" height="60" rx="10" ry="10" fill="#e6f2ff" stroke="#000" stroke-width="2"/>
    <text x="400" y="195" font-family="Arial" font-size="14" text-anchor="middle">Documentation Harvester</text>
    
    <!-- Vector Database -->
    <rect x="300" y="270" width="200" height="60" rx="10" ry="10" fill="#d9e6ff" stroke="#000" stroke-width="2"/>
    <text x="400" y="305" font-family="Arial" font-size="14" text-anchor="middle">Vector Database (FAISS)</text>
    
    <!-- Pipeline Scanner -->
    <rect x="50" y="380" width="200" height="60" rx="10" ry="10" fill="#ccddff" stroke="#000" stroke-width="2"/>
    <text x="150" y="415" font-family="Arial" font-size="14" text-anchor="middle">Pipeline Scanner</text>
    
    <!-- Components -->
    <rect x="50" y="490" width="200" height="80" rx="10" ry="10" fill="#c2d1f0" stroke="#000" stroke-width="2"/>
    <text x="150" y="515" font-family="Arial" font-size="14" text-anchor="middle">Pipeline Components</text>
    <text x="150" y="535" font-family="Arial" font-size="12" text-anchor="middle">Modules, Workflows,</text>
    <text x="150" y="555" font-family="Arial" font-size="12" text-anchor="middle">Configs, Test Data</text>
    
    <!-- LLM Validator -->
    <rect x="300" y="380" width="200" height="60" rx="10" ry="10" fill="#b3c6ff" stroke="#000" stroke-width="2"/>
    <text x="400" y="415" font-family="Arial" font-size="14" text-anchor="middle">LLM Validator (OpenAI)</text>
    
    <!-- Compliance Report -->
    <rect x="550" y="380" width="200" height="60" rx="10" ry="10" fill="#a3b9ff" stroke="#000" stroke-width="2"/>
    <text x="650" y="415" font-family="Arial" font-size="14" text-anchor="middle">Compliance Report</text>
    
    <!-- Chat Interface -->
    <rect x="550" y="490" width="200" height="60" rx="10" ry="10" fill="#94abff" stroke="#000" stroke-width="2"/>
    <text x="650" y="525" font-family="Arial" font-size="14" text-anchor="middle">Chat Interface</text>
    
    <!-- Arrows -->
    <!-- Website to Harvester -->
    <line x1="400" y1="110" x2="400" y2="160" stroke="#000" stroke-width="2" marker-end="url(#arrowhead)"/>
    <text x="420" y="140" font-family="Arial" font-size="12">Harvests</text>
    
    <!-- Harvester to Vector DB -->
    <line x1="400" y1="220" x2="400" y2="270" stroke="#000" stroke-width="2" marker-end="url(#arrowhead)"/>
    <text x="420" y="250" font-family="Arial" font-size="12">Creates</text>
    
    <!-- Vector DB to LLM -->
    <line x1="400" y1="330" x2="400" y2="380" stroke="#000" stroke-width="2" marker-end="url(#arrowhead)"/>
    <text x="420" y="360" font-family="Arial" font-size="12">Queries</text>
    
    <!-- Scanner to Components -->
    <line x1="150" y1="440" x2="150" y2="490" stroke="#000" stroke-width="2" marker-end="url(#arrowhead)"/>
    <text x="170" y="470" font-family="Arial" font-size="12">Analyzes</text>
    
    <!-- Components to LLM -->
    <line x1="250" y1="530" x2="350" y2="440" stroke="#000" stroke-width="2" marker-end="url(#arrowhead)"/>
    <text x="280" y="500" font-family="Arial" font-size="12">Validates</text>
    
    <!-- LLM to Report -->
    <line x1="500" y1="410" x2="550" y2="410" stroke="#000" stroke-width="2" marker-end="url(#arrowhead)"/>
    <text x="520" y="400" font-family="Arial" font-size="12">Generates</text>
    
    <!-- Chat to Vector DB -->
    <line x1="600" y1="490" x2="450" y2="330" stroke="#000" stroke-width="2" marker-end="url(#arrowhead)"/>
    <text x="500" y="390" font-family="Arial" font-size="12">Queries</text>
    
    <!-- Chat to LLM -->
    <line x1="600" y1="490" x2="450" y2="440" stroke="#000" stroke-width="2" marker-end="url(#arrowhead)"/>
    <text x="520" y="480" font-family="Arial" font-size="12">Uses</text>
    
    <!-- Scanner to Vector DB -->
    <line x1="200" y1="380" x2="300" y2="320" stroke="#000" stroke-width="2" marker-end="url(#arrowhead)"/>
    <text x="230" y="340" font-family="Arial" font-size="12">Queries</text>
    
    <!-- Arrow definition -->
    <defs>
        <marker id="arrowhead" markerWidth="10" markerHeight="7" refX="9" refY="3.5" orient="auto">
            <polygon points="0 0, 10 3.5, 0 7" />
        </marker>
    </defs>
</svg>
